<svg xmlns="http://www.w3.org/2000/svg" version="1.1" xmlns:xlink="http://www.w3.org/1999/xlink" width="512" height="512" x="0" y="0" viewBox="0 0 463.994 463" style="enable-background:new 0 0 512 512" xml:space="preserve" class=""><g><path d="M384 48.496c0-13.254-10.746-24-24-24h-24c0-13.254-10.746-24-24-24s-24 10.746-24 24h-32c0-13.254-10.746-24-24-24s-24 10.746-24 24h-32c0-13.254-10.746-24-24-24s-24 10.746-24 24H96c0-13.254-10.746-24-24-24s-24 10.746-24 24H24c-13.254 0-24 10.746-24 24v336a8 8 0 0 0 8 8h24v24a8 8 0 0 0 8 8h210.664c.106 0 .184-.055.281-.055 42.371 29.223 97.618 32 142.707 7.168 45.09-24.828 72.278-73.004 70.235-124.433-2.043-51.434-32.969-97.297-79.887-118.473zm-80-24a8 8 0 0 1 16 0v24h-16zm-80 0a8 8 0 0 1 16 0v24h-16zm-80 0a8 8 0 0 1 16 0v24h-16zm-80 0a8 8 0 0 1 16 0v24H64zm-48 24a8 8 0 0 1 8-8h24v16a8 8 0 0 0 8 8h32a8 8 0 0 0 8-8v-16h32v16a8 8 0 0 0 8 8h32a8 8 0 0 0 8-8v-16h32v16a8 8 0 0 0 8 8h32a8 8 0 0 0 8-8v-16h32v16a8 8 0 0 0 8 8h32a8 8 0 0 0 8-8v-16h24a8 8 0 0 1 8 8v40H16zm32 344h170.266a136.023 136.023 0 0 0 13.504 16H48zm400-80c0 66.274-53.727 120-120 120s-120-53.726-120-120c0-66.273 53.727-120 120-120 66.242.074 119.926 53.758 120 120zm-120-136c-47.785-.031-92.074 25.031-116.648 66.012-24.575 40.976-25.825 91.855-3.29 133.988H16v-272h352v78.024a135.599 135.599 0 0 0-40-6.024zm0 0" fill="#fccb00" opacity="1" data-original="#000000" class=""></path><path d="M72 136.496c-13.254 0-24 10.746-24 24s10.746 24 24 24 24-10.746 24-24-10.746-24-24-24zm0 32a8 8 0 1 1 0-16 8 8 0 0 1 0 16zM152 136.496c-13.254 0-24 10.746-24 24s10.746 24 24 24 24-10.746 24-24-10.746-24-24-24zm0 32a8 8 0 1 1 0-16 8 8 0 0 1 0 16zM232 136.496c-13.254 0-24 10.746-24 24s10.746 24 24 24 24-10.746 24-24-10.746-24-24-24zm0 32a8 8 0 1 1 0-16 8 8 0 0 1 0 16zM72 200.496c-13.254 0-24 10.746-24 24s10.746 24 24 24 24-10.746 24-24-10.746-24-24-24zm0 32a8 8 0 1 1 0-16 8 8 0 0 1 0 16zM152 200.496c-13.254 0-24 10.746-24 24s10.746 24 24 24 24-10.746 24-24-10.746-24-24-24zm0 32a8 8 0 1 1 0-16 8 8 0 0 1 0 16zM72 264.496c-13.254 0-24 10.746-24 24s10.746 24 24 24 24-10.746 24-24-10.746-24-24-24zm0 32a8 8 0 1 1 0-16 8 8 0 0 1 0 16zM152 264.496c-13.254 0-24 10.746-24 24s10.746 24 24 24 24-10.746 24-24-10.746-24-24-24zm0 32a8 8 0 1 1 0-16 8 8 0 0 1 0 16zM224 312.496c0 57.438 46.563 104 104 104s104-46.562 104-104-46.563-104-104-104c-57.41.067-103.934 46.59-104 104zm192 0h-16a8 8 0 0 0 0 16h14.473C407.258 367.22 375.219 396.45 336 400.09v-15.594a8 8 0 0 0-16 0v15.594c-39.219-3.64-71.258-32.871-78.473-71.594H256a8 8 0 0 0 0-16h-16c.059-45.469 34.723-83.422 80-87.59v15.59a8 8 0 0 0 16 0v-15.59c45.277 4.168 79.941 42.121 80 87.59zm0 0" fill="#fccb00" opacity="1" data-original="#000000" class=""></path><path d="m329.719 308.656-11.063-16.597a8.007 8.007 0 0 0-11.097-2.22 8.002 8.002 0 0 0-2.215 11.098l16 24a8.025 8.025 0 0 0 5.504 3.473 7.987 7.987 0 0 0 6.273-1.762l48-40a8 8 0 0 0 1.031-11.27 8.005 8.005 0 0 0-11.273-1.034zm0 0" fill="#fccb00" opacity="1" data-original="#000000" class=""></path></g></svg>