<svg xmlns="http://www.w3.org/2000/svg" version="1.1" xmlns:xlink="http://www.w3.org/1999/xlink" width="512" height="512" x="0" y="0" viewBox="0 0 64 64" style="enable-background:new 0 0 512 512" xml:space="preserve" class=""><g><g data-name="11 Fast Connection"><path d="M44 39h-6.656l.6-2.009A6.208 6.208 0 0 0 32 29a6.217 6.217 0 0 0-6 4.608l-2.966 11.134A1 1 0 0 0 24 46h6.613l-4.562 13.684a1 1 0 0 0 1.711.963l17-20A1 1 0 0 0 44 39ZM29.581 55.42l3.368-10.1A1 1 0 0 0 32 44h-6.7l2.634-9.876A4.211 4.211 0 0 1 32 31a4.208 4.208 0 0 1 4.03 5.417l-.989 3.3A1 1 0 0 0 36 41h5.837ZM15.029 22.029a1 1 0 0 0 0 1.414l4.243 4.244a1 1 0 0 0 1.414 0 16 16 0 0 1 22.628 0 1 1 0 0 0 1.414 0l4.243-4.244a1 1 0 0 0 0-1.414 24.029 24.029 0 0 0-33.942 0ZM44 25.584a18 18 0 0 0-24 0l-2.831-2.832a22.034 22.034 0 0 1 29.666 0Z" fill="#fccb00" opacity="1" data-original="#000000"></path><path d="M57.456 13.544a36.04 36.04 0 0 0-50.912 0 1 1 0 0 0 0 1.414l4.243 4.242a1 1 0 0 0 1.414 0 28.034 28.034 0 0 1 39.6 0 1 1 0 0 0 1.414 0l4.243-4.243a1 1 0 0 0-.002-1.413Zm-4.962 3.548a30.039 30.039 0 0 0-40.988 0l-2.83-2.83a34.038 34.038 0 0 1 46.648 0Z" fill="#fccb00" opacity="1" data-original="#000000"></path></g></g></svg>