<svg enable-background="new 0 0 512 512" viewBox="0 0 512 512" xmlns="http://www.w3.org/2000/svg"><g id="_x32_5_Location"><g><path d="m499.568 200.71c4.095 69.623-29.944 131.629-83.202 167.034-34.965 23.244-64.21 54.099-82.987 91.652l-20.345 40.69-18.723-37.467c-18.797-37.616-46.499-70.509-81.909-93.19-51.843-33.208-86.235-91.329-86.235-157.421 0-107.35 90.656-193.534 199.531-186.391 93.084 6.105 168.393 81.97 173.87 175.093z" fill="#f6b239"/><path d="m416.383 367.76c-34.959 23.21-64.235 54.062-83.004 91.648l-20.345 40.69-10.65-21.348 9.647-19.342c18.769-37.586 48.045-68.438 83.004-91.648 53.251-35.437 87.302-97.427 83.195-167.059-5.492-93.129-80.807-168.969-173.888-175.082-.716-.048-1.48-.096-2.197-.096 7.737-.43 15.569-.43 23.545.096 93.081 6.113 168.396 81.953 173.888 175.082 4.107 69.632-29.944 131.622-83.195 167.059z" fill="#f9f4f4"/><circle cx="313.034" cy="212.548" fill="#fff" r="111.987"/><path d="m505.658 200.351c-5.692-96.741-82.884-174.478-179.559-180.821-54.049-3.52-105.564 14.813-144.96 51.708-38.81 36.347-61.071 87.657-61.071 140.77 0 66.07 33.289 126.839 89.048 162.557 33.074 21.187 60.647 52.577 79.74 90.78l18.721 37.467c1.034 2.067 3.144 3.373 5.454 3.373s4.421-1.305 5.454-3.37l20.346-40.692c17.402-34.801 45.379-65.682 80.912-89.301 57.019-37.905 89.941-103.992 85.915-172.471zm-92.668 162.315c-37.295 24.795-66.711 57.3-85.066 94.002l-14.891 29.78-13.267-26.553c-20.074-40.17-49.147-73.228-84.075-95.601-52.239-33.463-83.427-90.394-83.427-152.287 0-50.486 20.317-97.318 57.212-131.869 33.894-31.745 77.349-48.845 123.485-48.845 4.092 0 8.208.136 12.338.407 90.549 5.94 162.853 78.751 168.183 169.365 3.83 65.14-26.262 125.551-80.492 161.601z"/><path d="m313.032 94.463c-65.111 0-118.083 52.973-118.083 118.083 0 65.113 52.973 118.085 118.083 118.085 65.115 0 118.088-52.973 118.088-118.085 0-65.11-52.972-118.083-118.088-118.083zm0 223.974c-58.389 0-105.888-47.501-105.888-105.89 0-58.387 47.499-105.888 105.888-105.888s105.893 47.501 105.893 105.888c0 58.388-47.504 105.89-105.893 105.89z"/><path d="m12.108 106.659h100.982c3.368 0 6.098-2.73 6.098-6.098s-2.73-6.098-6.098-6.098h-100.982c-3.368 0-6.098 2.73-6.098 6.098.001 3.368 2.73 6.098 6.098 6.098z"/><path d="m12.108 18.011h100.982c3.368 0 6.098-2.73 6.098-6.098s-2.73-6.098-6.098-6.098h-100.982c-3.368 0-6.098 2.73-6.098 6.098s2.73 6.098 6.098 6.098z"/><path d="m46.545 56.237c0 3.368 2.73 6.098 6.098 6.098h100.981c3.368 0 6.098-2.73 6.098-6.098s-2.73-6.098-6.098-6.098h-100.981c-3.368 0-6.098 2.73-6.098 6.098z"/></g></g><g id="Layer_1"/></svg>