<svg xmlns="http://www.w3.org/2000/svg" version="1.1" xmlns:xlink="http://www.w3.org/1999/xlink" width="512" height="512" x="0" y="0" viewBox="0 0 480 480" style="enable-background:new 0 0 512 512" xml:space="preserve" class=""><g><path d="M456 28h-11.424c-2-4.584-4.82-8.764-8.32-12.336A40.082 40.082 0 0 0 408 4H104a55.997 55.997 0 0 0-45.784 24H24C10.745 28 0 38.745 0 52s10.745 24 24 24h24v392a8 8 0 0 0 8 8h320a8 8 0 0 0 8-8v-16h56a8 8 0 0 0 8-8V76h8c13.255 0 24-10.745 24-24s-10.745-24-24-24zM50.184 44.656c-.472 1.648-.8 3.344-1.112 5.04-.16.848-.392 1.68-.512 2.536A56.88 56.88 0 0 0 48 60H24a8 8 0 0 1 0-16h26.328c-.064.216-.08.44-.144.656zM368 460H64v-64h304v64zm0-80H64v-32h304v32zm7.336-358.96a37.517 37.517 0 0 0-1.376 2.144 40.614 40.614 0 0 0-1.8 3.28c-.368.8-.72 1.536-1.048 2.328-.2.496-.464.944-.64 1.44l-.048.064a7.993 7.993 0 0 0-1.168 1.68 7.438 7.438 0 0 0-.592.88A7.879 7.879 0 0 0 368 36v296H64V60a38.728 38.728 0 0 1 5.416-20A40 40 0 0 1 104 20h272c-.248.328-.432.704-.664 1.04zm14.92 6.816a23.615 23.615 0 0 1 3.312-3.016c.312-.24.664-.424.984-.64a23.49 23.49 0 0 1 2.912-1.704c.464-.232.936-.432 1.416-.624a23.14 23.14 0 0 1 3.056-1.016c.464-.12.92-.264 1.392-.352A23.744 23.744 0 0 1 408 20a24.066 24.066 0 0 1 16.928 6.96c.328.336.672.688.96 1.04h-35.752l.12-.144zM432 436h-48V76h48v360zm24-376h-72V44h72a8 8 0 0 1 0 16z" fill="#fccb00" opacity="1" data-original="#000000" class=""></path></g></svg>